{
   "accessors": [
      {
         "bufferView": 0,
         "byteOffset": 0,
         "componentType": 5126,
         "count": 36152,
         "max": [
            93.56079864501953,
            97.01110076904297,
            93.86530303955078
         ],
         "min": [
            -87.47989654541016,
            -135.49600219726562,
            -103.52999877929688
         ],
         "type": "VEC3"
      },
      {
         "bufferView": 1,
         "byteOffset": 0,
         "componentType": 5126,
         "count": 36152,
         "type": "VEC3"
      },
      {
         "bufferView": 2,
         "byteOffset": 0,
         "componentType": 5125,
         "count": 224514,
         "type": "SCALAR"
      }
   ],
   "asset": {
      "generator": "Slicer 5.0.3",
      "version": "2.0"
   },
   "bufferViews": [
      {
         "buffer": 0,
         "byteLength": 433824,
         "byteOffset": 0
      },
      {
         "buffer": 1,
         "byteLength": 433824,
         "byteOffset": 0
      },
      {
         "buffer": 2,
         "byteLength": 898056,
         "byteOffset": 0
      }
   ],
   "buffers": [
      {
         "byteLength": 433824,
         "uri": "data:application/octet-stream;base64,"
      },
      {
         "byteLength": 433824,
         "uri": "data:application/octet-stream;base64,"
      },
      {
         "byteLength": 898056,
         "uri": "data:application/octet-stream;base64,"
      }
   ],
   "cameras": [
      {
         "perspective": {
            "aspectRatio": 1.0,
            "yfov": 0.5235987755982988,
            "zfar": 1000.01,
            "znear": 0.01
         },
         "type": "perspective"
      }
   ],
   "materials": [
      {
         "pbrMetallicRoughness": {
            "baseColorFactor": [
               0.4117647058823529,
               0.6823529411764706,
               0.4117647058823529,
               1.0
            ],
            "metallicFactor": 0.0,
            "roughnessFactor": 1.0
         }
      }
   ],
   "meshes": [
      {
         "name": "Segment_1",
         "primitives": [
            {
               "attributes": {
                  "NORMAL": 1,
                  "POSITION": 0
               },
               "indices": 2,
               "material": 0,
               "mode": 4
            }
         ]
      }
   ],
   "nodes": [
      {
         "mesh": 0,
         "name": "Segment_1"
      },
      {
         "name": "Segmentation_Models",
         "children": [
            0
         ],
         "matrix": [
            1.0,
            0.0,
            0.0,
            0.0,
            0.0,
            0.0,
            -1.0,
            0.0,
            0.0,
            1.0,
            0.0,
            0.0,
            0.0,
            0.0,
            0.0,
            1.0
         ]
      }
   ],
   "scene": 0,
   "scenes": [
      {
         "name": "Layer 0",
         "nodes": [
            1
         ]
      }
   ]
}